<svg width="48" height="48" viewBox="0 0 48 48" fill="none" xmlns="http://www.w3.org/2000/svg">
<path fill-rule="evenodd" clip-rule="evenodd" d="M24 48C37.2548 48 48 37.2548 48 24C48 10.7452 37.2548 0 24 0C10.7452 0 0 10.7452 0 24C0 37.2548 10.7452 48 24 48ZM14.8799 12.096H32.7359C34.1759 12.192 35.8079 13.44 35.9039 14.88V33.12C35.9039 34.656 34.5599 35.808 33.1199 35.904H14.8799C13.3439 35.904 12.0959 34.656 12.0959 33.12V14.88C12.0959 13.344 13.3439 12.096 14.8799 12.096ZM28.3199 24C28.3199 21.6 26.3999 19.68 23.9999 19.68C21.5999 19.68 19.6799 21.6 19.6799 24C19.6799 26.4 21.5999 28.32 23.9999 28.32C26.3999 28.32 28.3199 26.4 28.3199 24ZM31.1999 32.64C32.0639 32.64 32.7359 31.968 32.7359 31.104H32.6399V21.984H30.8159C31.0079 22.656 31.1039 23.328 31.1039 24C31.1039 27.936 27.9359 31.104 23.9999 31.104C20.0639 31.104 16.8959 27.936 16.8959 24C16.8959 23.232 16.9919 22.656 17.1839 21.984H15.3599V31.104C15.3599 31.968 16.0319 32.64 16.8959 32.64H23.9999H31.1999ZM32.7359 18.528V16.128C32.7359 15.648 32.3519 15.264 31.9679 15.36H29.5679C29.1839 15.36 28.7999 15.648 28.7999 16.128V18.528C28.7999 18.912 29.1839 19.296 29.5679 19.296H31.9679C32.3519 19.296 32.7359 18.912 32.7359 18.528Z" fill="#ABCB56"/>
</svg>
