<svg width="67" height="52" viewBox="0 0 67 52" fill="none" xmlns="http://www.w3.org/2000/svg">
<path d="M24.9075 24.1743V16.4459H44.6382C44.6555 16.6958 44.6714 16.9776 44.6807 17.2807C44.69 17.5838 44.6887 18.0278 44.6887 18.61C44.6887 24.963 43.0167 29.8884 39.6727 33.3862C36.3286 36.8839 31.619 38.6342 25.5438 38.6368C22.554 38.6368 19.8972 38.1871 17.5734 37.2876C15.2254 36.3784 13.1012 34.9728 11.3459 33.1669C9.58093 31.3768 8.19599 29.2481 7.27433 26.9086C6.31169 24.4992 5.82188 21.9267 5.83169 19.3318C5.83169 16.5802 6.3015 14.0501 7.24112 11.7416C8.20276 9.40219 9.63423 7.28525 11.4468 5.52197C13.268 3.74519 15.4304 2.35647 17.8032 1.43977C20.2755 0.502669 22.9002 0.0330099 25.5438 0.0546716C29.1509 0.0546716 32.339 0.768491 35.1083 2.19613C37.8775 3.62377 40.2151 5.74662 42.1209 8.56468L33.4106 12.7426C32.3718 11.3149 31.2037 10.2546 29.9063 9.56163C28.5622 8.8536 27.0627 8.49264 25.5438 8.51151C22.5328 8.51151 20.1678 9.51466 18.4488 11.521C16.7299 13.5273 15.8646 16.2691 15.8531 19.7465C15.8531 23.2531 16.7184 26.0149 18.4488 28.0319C20.1793 30.0488 22.5443 31.0573 25.5438 31.0573C28.085 31.0573 30.2158 30.4299 31.9201 29.1751C33.6245 27.9202 34.6181 26.2613 34.901 24.173L24.9075 24.1743Z" fill="white"/>
<path d="M43.7601 26.0327C45.1975 27.6278 46.6175 28.8387 48.011 29.6403C49.4625 30.4831 50.9083 30.9044 52.3482 30.9044C53.6886 30.9044 54.7965 30.5429 55.656 29.8211C56.4934 29.1606 56.9733 28.1456 56.9525 27.0788C56.9525 25.8505 56.5832 24.9041 55.8366 24.2421C55.0901 23.5801 53.3964 22.8929 50.7688 22.1884C48.925 21.693 47.357 21.117 46.0649 20.4603C44.1467 19.4926 40.8735 17.5718 40.8735 11.9636C40.8735 4.72441 46.6933 0.000172573 53.577 0.000172573C55.5327 -0.00791577 57.4792 0.268357 59.3556 0.820334C60.7276 1.23698 62.047 1.81059 63.2876 2.52978C63.7056 2.77171 64.1192 3.03136 64.5283 3.30873L61.3827 10.5333C60.3338 9.61807 59.1482 8.87264 57.8691 8.32408C56.7435 7.84673 55.5354 7.5943 54.313 7.58102C53.1014 7.58102 52.1224 7.87346 51.3666 8.44903C50.6107 9.02461 50.2334 9.7783 50.2334 10.6756C50.2334 11.6061 50.5682 12.3425 51.2297 12.8928C51.8913 13.4431 53.1705 13.9761 55.0608 14.4879L55.5152 14.6208C59.6128 15.7215 62.3046 16.9364 63.5905 18.2657C64.48 19.1996 65.1594 20.3132 65.5831 21.5317C66.0512 22.886 66.2804 24.3114 66.2606 25.7442C66.2606 29.6531 64.9765 32.796 62.4082 35.1727C59.84 37.5495 56.4185 38.7383 52.1437 38.7392C49.5754 38.7392 47.2388 38.3041 45.1337 37.4338C43.1571 36.6097 41.2481 35.3513 39.407 33.6587L39.6727 33.3928C41.574 31.3989 42.9365 28.9455 43.7601 26.0327Z" fill="white"/>
<path fill-rule="evenodd" clip-rule="evenodd" d="M65.7969 52H8.57747L0 40.971H65.7969V52ZM36.9987 45.6248V43.9273V43.914C36.7632 43.8003 36.5166 43.7112 36.2628 43.6482C36.0211 43.5888 35.7731 43.5589 35.5242 43.5591C35.1376 43.554 34.7537 43.624 34.3937 43.7652C34.0499 43.9067 33.7395 44.1186 33.4824 44.3873C33.2057 44.6647 32.988 44.9952 32.8421 45.359C32.6954 45.7404 32.6232 46.1466 32.6296 46.5553C32.6222 47.0625 32.737 47.5641 32.9644 48.0175C33.1908 48.4543 33.5257 48.8255 33.9367 49.0955C34.1585 49.2463 34.4035 49.3595 34.662 49.4305C34.9427 49.5085 35.2329 49.5465 35.5242 49.5435C35.7732 49.5439 36.0212 49.5136 36.2628 49.4531C36.5166 49.3902 36.7632 49.3011 36.9987 49.1873V47.4885C36.8198 47.6999 36.6043 47.8774 36.3624 48.0122C36.1531 48.1222 35.92 48.1792 35.6836 48.1783C35.2768 48.1908 34.8847 48.0259 34.6089 47.7264C34.3237 47.4176 34.1719 47.0087 34.1865 46.5885C34.1662 46.1513 34.3146 45.723 34.6009 45.3922C34.8761 45.0864 35.2726 44.9184 35.6836 44.9336C35.9204 44.9349 36.1534 44.9937 36.3624 45.1051C36.6033 45.2396 36.8187 45.4155 36.9987 45.6248ZM10.7627 43.7067V49.4066L12.2957 49.4106V46.8517L14.1554 49.4106H16.0922L13.8047 46.4862L15.9089 43.7067H14.1009L12.2983 46.2948V43.7067H10.7627ZM19.6456 43.7067V49.4066H21.2144V43.7067H19.6456ZM26.3553 49.4066V45.0546H25.0788V43.7067H29.1835V45.0546H27.9082V49.4066H26.3553ZM40.9426 49.4066V43.7067H42.4955V45.9226H44.5638V43.7067H46.1207V49.4066H44.5638V47.0857H42.4955V49.4066H40.9426ZM50.3996 43.7067V49.4066L53.8893 49.4013V48.1239H51.9139V47.1668H53.7737V45.9452H51.9139V44.9562H53.8893V43.7067H50.3996ZM57.9847 49.4066V43.7067H59.4831L61.6338 46.6377C61.675 46.6975 61.7427 46.8172 61.8384 46.998C61.934 47.1787 62.0363 47.3967 62.1506 47.6427C62.12 47.406 62.0974 47.196 62.0828 47.0113C62.0682 46.8265 62.0616 46.6643 62.0616 46.5207V43.7067H63.5533V49.4066H62.0616L59.9095 46.4623C59.8329 46.3467 59.7637 46.2264 59.7023 46.102C59.608 45.9226 59.5057 45.7112 59.3941 45.4653C59.4247 45.7046 59.4473 45.9159 59.4619 46.1007C59.4765 46.2855 59.4831 46.4476 59.4831 46.5912V49.4066H57.9847Z" fill="white"/>
</svg>
