<svg width="48" height="48" viewBox="0 0 48 48" fill="none" xmlns="http://www.w3.org/2000/svg">
<path fill-rule="evenodd" clip-rule="evenodd" d="M0 24C0 10.7 10.7 0 24 0C37.3 0 48 10.7 48 24C48 37.3 37.3 48 24 48C10.7 48 0 37.3 0 24ZM26 31C26 31.6 26 33 25 33H24C22 32.9 19.7 32.7 16.2 29.1C12.4 25.1 11 22 9 17C8.9 16.6 9 16 10 16H13C13.1367 16 13.2584 15.9963 13.3688 15.9929C14.0659 15.9715 14.3093 15.964 15 17C15.5969 17.8953 16.1938 18.8797 16.764 19.8202C18.1047 22.0312 19.2984 24 20 24C21 24 21 20 21 20V18C21 16.7858 19.7213 16.9255 19.1862 16.984C19.1043 16.993 19.0398 17 19 17C18.8 17 20 16 20 16C20 16 21.4 15 23 15H26C27.1748 15.3133 27.1228 16.792 27.045 19.0038C27.0235 19.6161 27 20.2845 27 21C27 22.1 27.1 24 28 24C28.6548 24 28.8862 23.4706 29.3488 22.4118C29.522 22.0154 29.7276 21.5448 30 21C30.6 19.7 31 19 33 16C33.7 15.1 38.8 16.1 39 16.7C39.2 17.3 37.8 19.5 36 22C33.6565 25.1247 33.7539 25.1982 34.8622 26.0342C35.1726 26.2684 35.5624 26.5624 36 27C38.3 29.3 39 30.4 39 31C39 32.9 37 33 37 33H34C33.5751 33 33.3307 33 33.1134 32.9233C32.8194 32.8194 32.5751 32.5751 32 32C30.7 30.7 29 29 28 29C27 29 26 30 26 31Z" fill="#ABCB56"/>
</svg>
