<svg width="140" height="163" viewBox="0 0 140 163" fill="none" xmlns="http://www.w3.org/2000/svg">
<rect y="-7" width="140" height="170" rx="5" fill="white"/>
<path d="M53.4782 110.565V100.209H79.9166C79.9397 100.544 79.9611 100.922 79.9735 101.328C79.986 101.734 79.9842 102.329 79.9842 103.109C79.9842 111.622 77.7438 118.222 73.2629 122.909C68.7821 127.596 62.4714 129.941 54.3309 129.944C50.3247 129.944 46.7647 129.342 43.6508 128.136C40.5047 126.918 37.6583 125.035 35.3062 122.615C32.9413 120.216 31.0855 117.364 29.8505 114.229C28.5606 111 27.9043 107.553 27.9174 104.076C27.9174 100.389 28.547 96.9992 29.806 93.9059C31.0946 90.7711 33.0127 87.9345 35.4415 85.5718C37.8818 83.1909 40.7793 81.3301 43.9588 80.1018C47.2716 78.8461 50.7885 78.2168 54.3309 78.2458C59.1641 78.2458 63.4361 79.2023 67.1469 81.1153C70.8576 83.0282 73.9898 85.8728 76.5435 89.6489L64.872 95.2471C63.48 93.3341 61.9148 91.9133 60.1764 90.9847C58.3753 90.036 56.366 89.5523 54.3309 89.5776C50.2962 89.5776 47.1272 90.9218 44.8239 93.6102C42.5205 96.2986 41.3612 99.9725 41.3457 104.632C41.3457 109.331 42.5051 113.031 44.8239 115.734C47.1426 118.437 50.3116 119.788 54.3309 119.788C57.736 119.788 60.5911 118.947 62.8749 117.266C65.1586 115.584 66.49 113.362 66.8692 110.563L53.4782 110.565Z" fill="#ABCB56"/>
<path d="M78.74 113.055C80.666 115.193 82.5688 116.815 84.436 117.889C86.381 119.019 88.3182 119.583 90.2477 119.583C92.0437 119.583 93.5283 119.099 94.6799 118.132C95.8021 117.247 96.4451 115.887 96.4172 114.457C96.4172 112.811 95.9224 111.543 94.922 110.656C93.9216 109.769 91.6521 108.848 88.1313 107.904C85.6607 107.24 83.5597 106.468 81.8283 105.589C79.258 104.292 74.8721 101.718 74.8721 94.2033C74.8721 84.5031 82.6703 78.1728 91.8942 78.1728C94.5148 78.1619 97.123 78.5321 99.6372 79.2718C101.476 79.83 103.244 80.5987 104.906 81.5623C105.466 81.8865 106.02 82.2344 106.569 82.6061L102.353 92.2868C100.948 91.0604 99.3594 90.0615 97.6454 89.3265C96.1371 88.6868 94.5184 88.3486 92.8803 88.3308C91.257 88.3308 89.9451 88.7227 88.9323 89.4939C87.9195 90.2651 87.414 91.2751 87.414 92.4774C87.414 93.7242 87.8625 94.7109 88.749 95.4484C89.6354 96.1858 91.3495 96.9 93.8825 97.5858L94.4912 97.7639C99.9819 99.2387 103.589 100.867 105.312 102.648C106.504 103.899 107.414 105.391 107.982 107.024C108.609 108.839 108.916 110.749 108.89 112.669C108.89 117.907 107.169 122.118 103.728 125.303C100.286 128.487 95.7016 130.08 89.9736 130.081C86.5323 130.081 83.4012 129.498 80.5805 128.332C77.9319 127.228 75.374 125.542 72.907 123.274L73.263 122.918C75.8107 120.246 77.6364 116.958 78.74 113.055Z" fill="#201600"/>
<path fill-rule="evenodd" clip-rule="evenodd" d="M31.5967 147.85H108.268V133.072H20.1032L31.5967 147.85Z" fill="#201600" stroke="#201600" stroke-width="0.5"/>
<path fill-rule="evenodd" clip-rule="evenodd" d="M69.6798 137.033V139.308C69.4386 139.027 69.15 138.792 68.8272 138.611C68.5471 138.462 68.2349 138.383 67.9176 138.382C67.367 138.361 66.8356 138.586 66.4669 138.996C66.0832 139.44 65.8844 140.013 65.9116 140.599C65.8921 141.162 66.0955 141.71 66.4776 142.124C66.8471 142.525 67.3725 142.746 67.9176 142.73C68.2344 142.731 68.5467 142.654 68.8272 142.507C69.1513 142.326 69.4401 142.088 69.6798 141.805V144.081C69.3643 144.234 69.0338 144.353 68.6937 144.438C68.37 144.519 68.0376 144.559 67.704 144.559C67.3137 144.563 66.9249 144.512 66.5488 144.407C66.2024 144.312 65.874 144.161 65.5769 143.959C65.0261 143.597 64.5774 143.099 64.274 142.514C63.9693 141.906 63.8154 141.234 63.8254 140.555C63.8168 140.007 63.9135 139.463 64.1102 138.952C64.3056 138.464 64.5974 138.021 64.9681 137.65C65.3126 137.29 65.7286 137.006 66.1892 136.816C66.6716 136.627 67.186 136.533 67.704 136.54C68.0375 136.54 68.3698 136.58 68.6937 136.659C69.0338 136.744 69.3642 136.863 69.6798 137.016V137.033ZM34.5248 144.375V136.738H36.5825V140.206L38.998 136.738H41.4205L38.601 140.462L41.6662 144.381H39.0709L36.5789 140.952V144.381L34.5248 144.375ZM46.4277 144.375V136.738H48.5299V144.375H46.4277ZM55.4185 138.544V144.375H57.4993V138.544H59.2081V136.738H53.7079V138.544H55.4185ZM74.9646 136.738V144.375H77.0454V141.265H79.8169V144.375H81.9031V136.738H79.8169V139.707H77.0454V136.738H74.9646ZM87.6365 144.375V136.738H92.3125V138.412H89.6657V139.737H92.1577V141.374H89.6657V142.656H92.3125V144.368L87.6365 144.375ZM97.8003 136.738V144.375H99.8081V140.603C99.8081 140.41 99.7992 140.193 99.7796 139.946C99.76 139.698 99.7298 139.415 99.6888 139.094C99.8383 139.424 99.9754 139.707 100.102 139.947C100.184 140.114 100.277 140.275 100.379 140.43L103.263 144.375H105.262V136.738H103.263V140.508C103.263 140.701 103.272 140.918 103.292 141.166C103.311 141.413 103.341 141.695 103.382 142.012C103.229 141.682 103.092 141.39 102.964 141.148C102.836 140.906 102.745 140.745 102.69 140.665L99.8081 136.738H97.8003Z" fill="white"/>
</svg>
