<svg width="90" height="70" viewBox="0 0 90 70" fill="none" xmlns="http://www.w3.org/2000/svg">
<path d="M34.375 32.3926V22.0368H60.8133C60.8364 22.3717 60.8578 22.7493 60.8703 23.1554C60.8827 23.5615 60.8809 24.1564 60.8809 24.9366C60.8809 33.4494 58.6405 40.0492 54.1597 44.7361C49.6788 49.4229 43.3681 51.7681 35.2276 51.7717C31.2214 51.7717 27.6614 51.1691 24.5476 49.9638C21.4014 48.7455 18.555 46.8621 16.2029 44.4422C13.838 42.0436 11.9822 39.1911 10.7472 36.0564C9.45734 32.8278 8.80102 29.3808 8.81416 25.9038C8.81416 22.2167 9.44368 18.8266 10.7027 15.7333C11.9913 12.5985 13.9094 9.7619 16.3382 7.39918C18.7785 5.01837 21.676 3.15754 24.8555 1.92921C28.1683 0.673524 31.6852 0.0441999 35.2276 0.0732258C40.0609 0.0732258 44.3329 1.02971 48.0436 2.94269C51.7543 4.85567 54.8865 7.7002 57.4402 11.4763L45.7687 17.0745C44.3768 15.1615 42.8116 13.7407 41.0731 12.8122C39.2721 11.8634 37.2628 11.3798 35.2276 11.405C31.1929 11.405 28.0239 12.7492 25.7206 15.4376C23.4173 18.126 22.2579 21.7999 22.2425 26.4595C22.2425 31.1582 23.4019 34.8589 25.7206 37.5615C28.0393 40.2641 31.2083 41.6155 35.2276 41.6155C38.6327 41.6155 41.4878 40.7747 43.7716 39.0933C46.0553 37.4119 47.3868 35.189 47.7659 32.3908L34.375 32.3926Z" fill="white"/>
<path d="M59.6368 34.8827C61.5627 37.0201 63.4656 38.6427 65.3328 39.7168C67.2777 40.846 69.215 41.4107 71.1445 41.4107C72.9405 41.4107 74.425 40.9262 75.5767 39.959C76.6989 39.074 77.3419 37.714 77.314 36.2845C77.314 34.6387 76.8191 33.3705 75.8188 32.4834C74.8184 31.5964 72.5489 30.6756 69.0281 29.7315C66.5574 29.0677 64.4564 28.2959 62.7251 27.416C60.1548 26.1193 55.7688 23.5455 55.7688 16.0308C55.7688 6.33051 63.567 0.000231241 72.791 0.000231241C75.4115 -0.0106068 78.0198 0.359587 80.534 1.09921C82.3724 1.6575 84.1404 2.42611 85.8028 3.3898C86.3629 3.71397 86.917 4.06189 87.4653 4.43356L83.2503 14.1142C81.8448 12.8878 80.2562 11.889 78.5422 11.1539C77.0339 10.5143 75.4151 10.1761 73.7771 10.1582C72.1537 10.1582 70.8419 10.5501 69.8291 11.3214C68.8162 12.0926 68.3107 13.1025 68.3107 14.3048C68.3107 15.5516 68.7593 16.5384 69.6457 17.2758C70.5322 18.0132 72.2463 18.7275 74.7792 19.4132L75.388 19.5913C80.8787 21.0661 84.4856 22.6941 86.2086 24.4753C87.4005 25.7267 88.3109 27.2189 88.8786 28.8516C89.5059 30.6663 89.813 32.5762 89.7864 34.4962C89.7864 39.734 88.0657 43.9453 84.6244 47.13C81.1831 50.3147 76.5984 51.9077 70.8704 51.9089C67.429 51.9089 64.298 51.3258 61.4773 50.1598C58.8287 49.0555 56.2708 47.3693 53.8037 45.1012L54.1597 44.745C56.7075 42.0733 58.5332 38.7858 59.6368 34.8827Z" fill="white"/>
<path fill-rule="evenodd" clip-rule="evenodd" d="M89.1652 69.6778H12.4935L1 54.8994H89.1652V69.6778ZM50.5766 61.1353V58.8607V58.8429C50.2611 58.6905 49.9306 58.5711 49.5905 58.4867C49.2666 58.4071 48.9343 58.3671 48.6008 58.3674C48.0828 58.3605 47.5684 58.4543 47.0861 58.6434C46.6254 58.8331 46.2095 59.117 45.865 59.477C45.4942 59.8488 45.2024 60.2916 45.007 60.7791C44.8103 61.2902 44.7136 61.8344 44.7222 62.3821C44.7122 63.0618 44.8661 63.7339 45.1708 64.3414C45.4742 64.9267 45.9229 65.4241 46.4737 65.7859C46.7709 65.988 47.0992 66.1396 47.4456 66.2348C47.8217 66.3392 48.2106 66.3902 48.6008 66.3862C48.9344 66.3868 49.2669 66.3461 49.5905 66.2651C49.9306 66.1807 50.2611 66.0613 50.5766 65.9088V63.6325C50.337 63.9159 50.0481 64.1536 49.724 64.3343C49.4435 64.4816 49.1312 64.5581 48.8144 64.5569C48.2694 64.5736 47.7439 64.3527 47.3744 63.9513C46.9923 63.5376 46.7889 62.9897 46.8084 62.4266C46.7812 61.8408 46.9801 61.2669 47.3637 60.8236C47.7325 60.4138 48.2638 60.1888 48.8144 60.2091C49.1318 60.2108 49.4439 60.2896 49.724 60.4389C50.0469 60.6191 50.3355 60.8549 50.5766 61.1353ZM15.4216 58.5651V66.2027L17.4757 66.2081V62.7793L19.9678 66.2081H22.563L19.4978 62.2895L22.3174 58.5651H19.8948L17.4793 62.033V58.5651H15.4216ZM27.3245 58.5651V66.2027H29.4267V58.5651H27.3245ZM36.3153 66.2027V60.3712H34.6047V58.5651H40.1049V60.3712H38.3961V66.2027H36.3153ZM55.8615 66.2027V58.5651H57.9423V61.5343H60.7137V58.5651H62.7999V66.2027H60.7137V63.0928H57.9423V66.2027H55.8615ZM68.5333 58.5651V66.2027L73.2093 66.1956V64.4839H70.5625V63.2014H73.0545V61.5646H70.5625V60.2394H73.2093V58.5651H68.5333ZM78.6971 66.2027V58.5651H80.7049L83.5867 62.4925C83.6419 62.5727 83.7327 62.733 83.8609 62.9752C83.989 63.2175 84.1261 63.5096 84.2792 63.8391C84.2382 63.5221 84.208 63.2406 84.1884 62.9931C84.1688 62.7455 84.1599 62.5282 84.1599 62.3358V58.5651H86.1588V66.2027H84.1599L81.2763 62.2574C81.1736 62.1026 81.0809 61.9413 80.9986 61.7747C80.8722 61.5343 80.7352 61.2511 80.5856 60.9216C80.6266 61.2422 80.6569 61.5254 80.6764 61.773C80.696 62.0205 80.7049 62.2378 80.7049 62.4302V66.2027H78.6971Z" fill="white"/>
<path d="M12.4935 69.6778L12.2961 69.8313L12.3712 69.9278H12.4935V69.6778ZM89.1652 69.6778V69.9278H89.4152V69.6778H89.1652ZM1 54.8994V54.6494H0.488863L0.802657 55.0529L1 54.8994ZM89.1652 54.8994H89.4152V54.6494H89.1652V54.8994ZM50.5766 61.1353L50.3871 61.2983L50.8266 61.8094V61.1353H50.5766ZM50.5766 58.8429H50.8266V58.686L50.6854 58.6178L50.5766 58.8429ZM49.5905 58.4867L49.6507 58.2441L49.6501 58.2439L49.5905 58.4867ZM48.6008 58.3674L48.5975 58.6174L48.601 58.6174L48.6008 58.3674ZM47.0861 58.6434L46.9948 58.4107L46.9909 58.4123L47.0861 58.6434ZM45.865 59.477L46.042 59.6536L46.0456 59.6499L45.865 59.477ZM45.007 60.7791L44.7749 60.686L44.7737 60.6893L45.007 60.7791ZM44.7222 62.3821L44.9723 62.3858L44.9722 62.3782L44.7222 62.3821ZM45.1708 64.3414L44.9473 64.4535L44.9488 64.4565L45.1708 64.3414ZM46.4737 65.7859L46.6143 65.5792L46.611 65.577L46.4737 65.7859ZM47.4456 66.2348L47.5125 65.9939L47.5118 65.9937L47.4456 66.2348ZM48.6008 66.3862L48.6013 66.1362L48.5983 66.1362L48.6008 66.3862ZM49.5905 66.2651L49.5303 66.0224L49.5298 66.0225L49.5905 66.2651ZM50.5766 65.9088L50.6854 66.1339L50.8266 66.0657V65.9088H50.5766ZM50.5766 63.6325H50.8266V62.9497L50.3857 63.4711L50.5766 63.6325ZM49.724 64.3343L49.8403 64.5557L49.8457 64.5526L49.724 64.3343ZM48.8144 64.5569L48.8153 64.3068L48.8068 64.307L48.8144 64.5569ZM47.3744 63.9513L47.5583 63.782L47.5581 63.7817L47.3744 63.9513ZM46.8084 62.4266L47.0582 62.4353L47.0586 62.4252L47.0581 62.4151L46.8084 62.4266ZM47.3637 60.8236L47.1779 60.6563L47.1747 60.66L47.3637 60.8236ZM48.8144 60.2091L48.8052 60.459L48.8131 60.4591L48.8144 60.2091ZM49.724 60.4389L49.8459 60.2205L49.8415 60.2182L49.724 60.4389ZM15.4216 66.2027H15.1716V66.4521L15.421 66.4527L15.4216 66.2027ZM15.4216 58.5651V58.3151H15.1716V58.5651H15.4216ZM17.4757 66.2081L17.4751 66.4581L17.7257 66.4587V66.2081H17.4757ZM17.4757 62.7793L17.678 62.6323L17.2257 62.0101V62.7793H17.4757ZM19.9678 66.2081L19.7655 66.355L19.8404 66.4581H19.9678V66.2081ZM22.563 66.2081V66.4581H23.0759L22.7599 66.054L22.563 66.2081ZM19.4978 62.2895L19.2985 62.1386L19.1824 62.292L19.3009 62.4435L19.4978 62.2895ZM22.3174 58.5651L22.5167 58.716L22.8202 58.3151H22.3174V58.5651ZM19.8948 58.5651V58.3151H19.7642L19.6896 58.4222L19.8948 58.5651ZM17.4793 62.033H17.2293V62.8293L17.6845 62.1759L17.4793 62.033ZM17.4793 58.5651H17.7293V58.3151H17.4793V58.5651ZM27.3245 66.2027H27.0745V66.4527H27.3245V66.2027ZM27.3245 58.5651V58.3151H27.0745V58.5651H27.3245ZM29.4267 66.2027V66.4527H29.6767V66.2027H29.4267ZM29.4267 58.5651H29.6767V58.3151H29.4267V58.5651ZM36.3153 60.3712H36.5653V60.1212H36.3153V60.3712ZM36.3153 66.2027H36.0653V66.4527H36.3153V66.2027ZM34.6047 60.3712H34.3547V60.6212H34.6047V60.3712ZM34.6047 58.5651V58.3151H34.3547V58.5651H34.6047ZM40.1049 58.5651H40.3549V58.3151H40.1049V58.5651ZM40.1049 60.3712V60.6212H40.3549V60.3712H40.1049ZM38.3961 60.3712V60.1212H38.1461V60.3712H38.3961ZM38.3961 66.2027V66.4527H38.6461V66.2027H38.3961ZM55.8615 58.5651V58.3151H55.6115V58.5651H55.8615ZM55.8615 66.2027H55.6115V66.4527H55.8615V66.2027ZM57.9423 58.5651H58.1923V58.3151H57.9423V58.5651ZM57.9423 61.5343H57.6923V61.7843H57.9423V61.5343ZM60.7137 61.5343V61.7843H60.9637V61.5343H60.7137ZM60.7137 58.5651V58.3151H60.4637V58.5651H60.7137ZM62.7999 58.5651H63.0499V58.3151H62.7999V58.5651ZM62.7999 66.2027V66.4527H63.0499V66.2027H62.7999ZM60.7137 66.2027H60.4637V66.4527H60.7137V66.2027ZM60.7137 63.0928H60.9637V62.8428H60.7137V63.0928ZM57.9423 63.0928V62.8428H57.6923V63.0928H57.9423ZM57.9423 66.2027V66.4527H58.1923V66.2027H57.9423ZM68.5333 66.2027H68.2833V66.4531L68.5337 66.4527L68.5333 66.2027ZM68.5333 58.5651V58.3151H68.2833V58.5651H68.5333ZM73.2093 66.1956L73.2097 66.4456L73.4593 66.4452V66.1956H73.2093ZM73.2093 64.4839H73.4593V64.2339H73.2093V64.4839ZM70.5625 64.4839H70.3125V64.7339H70.5625V64.4839ZM70.5625 63.2014V62.9514H70.3125V63.2014H70.5625ZM73.0545 63.2014V63.4514H73.3045V63.2014H73.0545ZM73.0545 61.5646H73.3045V61.3146H73.0545V61.5646ZM70.5625 61.5646H70.3125V61.8146H70.5625V61.5646ZM70.5625 60.2394V59.9894H70.3125V60.2394H70.5625ZM73.2093 60.2394V60.4894H73.4593V60.2394H73.2093ZM73.2093 58.5651H73.4593V58.3151H73.2093V58.5651ZM78.6971 58.5651V58.3151H78.4471V58.5651H78.6971ZM78.6971 66.2027H78.4471V66.4527H78.6971V66.2027ZM80.7049 58.5651L80.9065 58.4172L80.8316 58.3151H80.7049V58.5651ZM83.5867 62.4925L83.7927 62.3507L83.7883 62.3446L83.5867 62.4925ZM83.8609 62.9752L84.0818 62.8583V62.8583L83.8609 62.9752ZM84.2792 63.8391L84.0524 63.9444L84.5271 63.8071L84.2792 63.8391ZM84.1884 62.9931L83.9391 63.0128V63.0128L84.1884 62.9931ZM84.1599 58.5651V58.3151H83.9099V58.5651H84.1599ZM86.1588 58.5651H86.4088V58.3151H86.1588V58.5651ZM86.1588 66.2027V66.4527H86.4088V66.2027H86.1588ZM84.1599 66.2027L83.9581 66.3502L84.033 66.4527H84.1599V66.2027ZM81.2763 62.2574L81.0677 62.3957L81.0745 62.4049L81.2763 62.2574ZM80.9986 61.7747L81.2228 61.664L81.2199 61.6584L80.9986 61.7747ZM80.5856 60.9216L80.8133 60.8182L80.3377 60.9532L80.5856 60.9216ZM80.6764 61.773L80.4272 61.7927V61.7927L80.6764 61.773ZM80.7049 66.2027V66.4527H80.9549V66.2027H80.7049ZM12.4935 69.9278H89.1652V69.4278H12.4935V69.9278ZM0.802657 55.0529L12.2961 69.8313L12.6908 69.5243L1.19734 54.7459L0.802657 55.0529ZM89.1652 54.6494H1V55.1494H89.1652V54.6494ZM89.4152 69.6778V54.8994H88.9152V69.6778H89.4152ZM50.3266 58.8607V61.1353H50.8266V58.8607H50.3266ZM50.3266 58.8429V58.8607H50.8266V58.8429H50.3266ZM49.5303 58.7293C49.8536 58.8096 50.1679 58.9231 50.4679 59.068L50.6854 58.6178C50.3543 58.4579 50.0076 58.3326 49.6507 58.2441L49.5303 58.7293ZM48.601 58.6174C48.9144 58.6171 49.2266 58.6547 49.5309 58.7295L49.6501 58.2439C49.3067 58.1595 48.9543 58.117 48.6006 58.1174L48.601 58.6174ZM47.1773 58.8762C47.6296 58.6988 48.1119 58.6109 48.5975 58.6173L48.6041 58.1174C48.0538 58.1101 47.5072 58.2097 46.9948 58.4107L47.1773 58.8762ZM46.0456 59.6499C46.366 59.315 46.7528 59.051 47.1812 58.8746L46.9909 58.4123C46.498 58.6152 46.0529 58.919 45.6843 59.3042L46.0456 59.6499ZM45.2391 60.8721C45.4219 60.4159 45.695 60.0014 46.042 59.6536L45.688 59.3005C45.2934 59.6961 44.9829 60.1674 44.775 60.686L45.2391 60.8721ZM44.9722 62.3782C44.9641 61.8625 45.0551 61.3501 45.2403 60.8688L44.7737 60.6893C44.5655 61.2303 44.4632 61.8063 44.4722 62.386L44.9722 62.3782ZM45.3942 64.2293C45.1076 63.6577 44.9628 63.0253 44.9722 62.3858L44.4722 62.3784C44.4617 63.0983 44.6246 63.81 44.9473 64.4535L45.3942 64.2293ZM46.611 65.577C46.096 65.2387 45.6764 64.7736 45.3927 64.2263L44.9488 64.4565C45.272 65.0798 45.7498 65.6095 46.3365 65.9949L46.611 65.577ZM47.5118 65.9937C47.1919 65.9058 46.8887 65.7658 46.6143 65.5792L46.3332 65.9927C46.653 66.2101 47.0065 66.3734 47.3794 66.4758L47.5118 65.9937ZM48.5983 66.1362C48.2315 66.1399 47.866 66.092 47.5125 65.9939L47.3787 66.4757C47.7774 66.5864 48.1897 66.6404 48.6034 66.6362L48.5983 66.1362ZM49.5298 66.0225C49.2261 66.0986 48.9143 66.1367 48.6013 66.1362L48.6004 66.6362C48.9546 66.6368 49.3076 66.5936 49.6512 66.5076L49.5298 66.0225ZM50.4679 65.6837C50.1679 65.8287 49.8537 65.9422 49.5303 66.0224L49.6507 66.5077C50.0076 66.4192 50.3543 66.2939 50.6854 66.1339L50.4679 65.6837ZM50.3266 63.6325V65.9088H50.8266V63.6325H50.3266ZM49.8457 64.5526C50.1961 64.3573 50.5084 64.1003 50.7675 63.7939L50.3857 63.4711C50.1655 63.7315 49.9001 63.9499 49.6023 64.1159L49.8457 64.5526ZM48.8135 64.8069C49.1712 64.8082 49.5236 64.7219 49.8403 64.5556L49.6078 64.1129C49.3634 64.2413 49.0913 64.3079 48.8153 64.3069L48.8135 64.8069ZM47.1905 64.1207C47.6091 64.5753 48.2045 64.8257 48.8221 64.8068L48.8068 64.307C48.3343 64.3215 47.8787 64.13 47.5583 63.782L47.1905 64.1207ZM46.5585 62.418C46.5368 63.0468 46.764 63.6588 47.1908 64.1209L47.5581 63.7817C47.2207 63.4164 47.041 62.9325 47.0582 62.4353L46.5585 62.418ZM47.1747 60.66C46.7491 61.1518 46.5285 61.7884 46.5586 62.4382L47.0581 62.4151C47.0339 61.8932 47.211 61.3821 47.5528 60.9872L47.1747 60.66ZM48.8236 59.9593C48.1989 59.9362 47.5962 60.1916 47.1779 60.6564L47.5496 60.9908C47.8688 60.6361 48.3286 60.4413 48.8052 60.4589L48.8236 59.9593ZM49.8415 60.2182C49.5257 60.0499 49.1736 59.961 48.8158 59.9591L48.8131 60.4591C49.0899 60.4606 49.3621 60.5293 49.6065 60.6595L49.8415 60.2182ZM50.7662 60.9723C50.5059 60.6696 50.1944 60.4152 49.8459 60.2206L49.6021 60.6571C49.8993 60.8231 50.165 61.0401 50.3871 61.2983L50.7662 60.9723ZM15.6716 66.2027V58.5651H15.1716V66.2027H15.6716ZM17.4764 65.9581L15.4223 65.9527L15.421 66.4527L17.4751 66.4581L17.4764 65.9581ZM17.2257 62.7793V66.2081H17.7257V62.7793H17.2257ZM20.17 66.0611L17.678 62.6323L17.2735 62.9263L19.7655 66.355L20.17 66.0611ZM22.563 65.9581H19.9678V66.4581H22.563V65.9581ZM19.3009 62.4435L22.3661 66.3621L22.7599 66.054L19.6947 62.1355L19.3009 62.4435ZM22.118 58.4142L19.2985 62.1386L19.6972 62.4404L22.5167 58.716L22.118 58.4142ZM19.8948 58.8151H22.3174V58.3151H19.8948V58.8151ZM17.6845 62.1759L20.0999 58.7079L19.6896 58.4222L17.2742 61.8901L17.6845 62.1759ZM17.2293 58.5651V62.033H17.7293V58.5651H17.2293ZM15.4216 58.8151H17.4793V58.3151H15.4216V58.8151ZM27.5745 66.2027V58.5651H27.0745V66.2027H27.5745ZM29.4267 65.9527H27.3245V66.4527H29.4267V65.9527ZM29.1767 58.5651V66.2027H29.6767V58.5651H29.1767ZM27.3245 58.8151H29.4267V58.3151H27.3245V58.8151ZM36.0653 60.3712V66.2027H36.5653V60.3712H36.0653ZM34.6047 60.6212H36.3153V60.1212H34.6047V60.6212ZM34.3547 58.5651V60.3712H34.8547V58.5651H34.3547ZM40.1049 58.3151H34.6047V58.8151H40.1049V58.3151ZM40.3549 60.3712V58.5651H39.8549V60.3712H40.3549ZM38.3961 60.6212H40.1049V60.1212H38.3961V60.6212ZM38.6461 66.2027V60.3712H38.1461V66.2027H38.6461ZM36.3153 66.4527H38.3961V65.9527H36.3153V66.4527ZM55.6115 58.5651V66.2027H56.1115V58.5651H55.6115ZM57.9423 58.3151H55.8615V58.8151H57.9423V58.3151ZM58.1923 61.5343V58.5651H57.6923V61.5343H58.1923ZM60.7137 61.2843H57.9423V61.7843H60.7137V61.2843ZM60.4637 58.5651V61.5343H60.9637V58.5651H60.4637ZM62.7999 58.3151H60.7137V58.8151H62.7999V58.3151ZM63.0499 66.2027V58.5651H62.5499V66.2027H63.0499ZM60.7137 66.4527H62.7999V65.9527H60.7137V66.4527ZM60.4637 63.0928V66.2027H60.9637V63.0928H60.4637ZM57.9423 63.3428H60.7137V62.8428H57.9423V63.3428ZM58.1923 66.2027V63.0928H57.6923V66.2027H58.1923ZM55.8615 66.4527H57.9423V65.9527H55.8615V66.4527ZM68.7833 66.2027V58.5651H68.2833V66.2027H68.7833ZM73.209 65.9456L68.5329 65.9527L68.5337 66.4527L73.2097 66.4456L73.209 65.9456ZM72.9593 64.4839V66.1956H73.4593V64.4839H72.9593ZM70.5625 64.7339H73.2093V64.2339H70.5625V64.7339ZM70.3125 63.2014V64.4839H70.8125V63.2014H70.3125ZM73.0545 62.9514H70.5625V63.4514H73.0545V62.9514ZM72.8045 61.5646V63.2014H73.3045V61.5646H72.8045ZM70.5625 61.8146H73.0545V61.3146H70.5625V61.8146ZM70.3125 60.2394V61.5646H70.8125V60.2394H70.3125ZM73.2093 59.9894H70.5625V60.4894H73.2093V59.9894ZM72.9593 58.5651V60.2394H73.4593V58.5651H72.9593ZM68.5333 58.8151H73.2093V58.3151H68.5333V58.8151ZM78.4471 58.5651V66.2027H78.9471V58.5651H78.4471ZM80.7049 58.3151H78.6971V58.8151H80.7049V58.3151ZM83.7883 62.3446L80.9065 58.4172L80.5033 58.713L83.3852 62.6404L83.7883 62.3446ZM84.0818 62.8583C83.9547 62.618 83.8574 62.4448 83.7926 62.3508L83.3808 62.6343C83.4264 62.7005 83.5107 62.848 83.6399 63.0922L84.0818 62.8583ZM84.5059 63.7338C84.3532 63.4052 84.2135 63.1072 84.0818 62.8583L83.6399 63.0922C83.7645 63.3277 83.8989 63.614 84.0524 63.9444L84.5059 63.7338ZM83.9391 63.0128C83.9591 63.2655 83.9899 63.5511 84.0312 63.8711L84.5271 63.8071C84.4865 63.493 84.4568 63.2158 84.4376 62.9733L83.9391 63.0128ZM83.9099 62.3358C83.9099 62.5358 83.9191 62.7598 83.9391 63.0128L84.4376 62.9733C84.4184 62.7312 84.4099 62.5205 84.4099 62.3358H83.9099ZM83.9099 58.5651V62.3358H84.4099V58.5651H83.9099ZM86.1588 58.3151H84.1599V58.8151H86.1588V58.3151ZM86.4088 66.2027V58.5651H85.9088V66.2027H86.4088ZM84.1599 66.4527H86.1588V65.9527H84.1599V66.4527ZM81.0745 62.4049L83.9581 66.3502L84.3617 66.0552L81.4781 62.1099L81.0745 62.4049ZM80.7745 61.8854C80.8614 62.0615 80.9594 62.2319 81.0679 62.3955L81.4847 62.1193C81.3879 61.9732 81.3004 61.8212 81.2228 61.664L80.7745 61.8854ZM80.358 61.0249C80.5089 61.3574 80.6481 61.6452 80.7773 61.891L81.2199 61.6584C81.0964 61.4234 80.9614 61.1447 80.8133 60.8182L80.358 61.0249ZM80.9257 61.7532C80.9057 61.5006 80.8749 61.2133 80.8336 60.8899L80.3377 60.9532C80.3783 61.271 80.408 61.5501 80.4272 61.7927L80.9257 61.7532ZM80.9549 62.4302C80.9549 62.2302 80.9457 62.0063 80.9257 61.7532L80.4272 61.7927C80.4464 62.0348 80.4549 62.2455 80.4549 62.4302H80.9549ZM80.9549 66.2027V62.4302H80.4549V66.2027H80.9549ZM78.6971 66.4527H80.7049V65.9527H78.6971V66.4527Z" fill="#201600"/>
</svg>
